HIERARCHY
ROOT Hips
{
	OFFSET 0.000000 0.000000 0.000000
	CHANNELS 6 Xposition Yposition Zposition Xrotation Yrotation Zrotation
	JOINT LeftUpLeg_virtual
	{
		OFFSET 0.000000 0.000000 0.000000
		CHANNELS 3 Xrotation Yrotation Zrotation
		JOINT LeftUpLeg
		{
			OFFSET 13.026900 -6.336304 -1.092800
			CHANNELS 3 Xrotation Yrotation Zrotation
			JOINT LeftLeg
			{
				OFFSET 0.524474 -46.096886 9.782700
				CHANNELS 3 Xrotation Yrotation Zrotation
				JOINT LeftFoot
				{
					OFFSET -0.524474 -53.427422 -12.948200
					CHANNELS 3 Xrotation Yrotation Zrotation
					JOINT LeftToeBase
					{
						OFFSET 0.192200 -14.009700 16.364100
						CHANNELS 3 Xrotation Yrotation Zrotation
						JOINT LeftToe_End
						{
							OFFSET -1.784700 -0.561700 9.474800
							CHANNELS 3 Xrotation Yrotation Zrotation
							End Site
							{
								OFFSET 0 0 0
							}
						}
					}
				}
			}
		}
	}
	JOINT RightUpLeg_virtual
	{
		OFFSET 0.000000 0.000000 0.000000
		CHANNELS 3 Xrotation Yrotation Zrotation
		JOINT RightUpLeg
		{
			OFFSET -12.883000 -6.336304 -1.092800
			CHANNELS 3 Xrotation Yrotation Zrotation
			JOINT RightLeg
			{
				OFFSET -0.524587 -46.096825 9.782800
				CHANNELS 3 Xrotation Yrotation Zrotation
				JOINT RightFoot
				{
					OFFSET 0.524587 -53.427383 -12.948300
					CHANNELS 3 Xrotation Yrotation Zrotation
					JOINT RightToeBase
					{
						OFFSET -0.192200 -14.009700 16.364100
						CHANNELS 3 Xrotation Yrotation Zrotation
						JOINT RightToe_End
						{
							OFFSET 1.784700 -0.561700 9.474800
							CHANNELS 3 Xrotation Yrotation Zrotation
							End Site
							{
								OFFSET 0 0 0
							}
						}
					}
				}
			}
		}
	}
	JOINT Spine_virtual
	{
		OFFSET 0.000000 0.000000 0.000000
		CHANNELS 3 Xrotation Yrotation Zrotation
		JOINT Spine
		{
			OFFSET 0.072000 7.257294 -0.789700
			CHANNELS 3 Xrotation Yrotation Zrotation
			JOINT Spine1
			{
				OFFSET 0.000000 12.508769 -0.658067
				CHANNELS 3 Xrotation Yrotation Zrotation
				JOINT Spine1_split
				{
					OFFSET 0.000000 12.508769 -0.658067
					CHANNELS 3 Xrotation Yrotation Zrotation
					JOINT Spine2
					{
						OFFSET 0.000000 12.508769 -0.658067
						CHANNELS 3 Xrotation Yrotation Zrotation
						JOINT Neck_virtual
						{
							OFFSET 0.000000 0.000000 0.000000
							CHANNELS 3 Xrotation Yrotation Zrotation
							JOINT Neck
							{
								OFFSET 0.000000 14.033295 7.520400
								CHANNELS 3 Xrotation Yrotation Zrotation
								JOINT Head
								{
									OFFSET 0.000000 8.198502 5.703100
									CHANNELS 3 Xrotation Yrotation Zrotation
									JOINT HeadTop_End
									{
										OFFSET 0.000000 17.760803 13.332701
										CHANNELS 3 Xrotation Yrotation Zrotation
										End Site
										{
											OFFSET 0 0 0
										}
									}
								}
							}
						}
						JOINT LeftShoulder_virtual
						{
							OFFSET 0.000000 0.000000 0.000000
							CHANNELS 3 Xrotation Yrotation Zrotation
							JOINT LeftShoulder
							{
								OFFSET 6.292450 5.785301 -0.669000
								CHANNELS 3 Xrotation Yrotation Zrotation
								JOINT LeftShoulder_split
								{
									OFFSET 6.292450 5.785301 -0.669000
									CHANNELS 3 Xrotation Yrotation Zrotation
									JOINT LeftArm
									{
										OFFSET 13.907140 -6.093903 1.965100
										CHANNELS 3 Xrotation Yrotation Zrotation
										JOINT LeftForeArm
										{
											OFFSET 34.140198 0.000000 0.000000
											CHANNELS 3 Xrotation Yrotation Zrotation
											JOINT LeftHand
											{
												OFFSET 40.960209 0.000000 0.000000
												CHANNELS 3 Xrotation Yrotation Zrotation
												End Site
												{
													OFFSET 0 0 0
												}
											}
										}
									}
								}
							}
						}
						JOINT RightShoulder_virtual
						{
							OFFSET 0.000000 0.000000 0.000000
							CHANNELS 3 Xrotation Yrotation Zrotation
							JOINT RightShoulder
							{
								OFFSET -6.292450 5.785301 -0.669000
								CHANNELS 3 Xrotation Yrotation Zrotation
								JOINT RightShoulder_split
								{
									OFFSET -6.292450 5.785301 -0.669000
									CHANNELS 3 Xrotation Yrotation Zrotation
									JOINT RightArm
									{
										OFFSET -13.907140 -6.093903 1.965100
										CHANNELS 3 Xrotation Yrotation Zrotation
										JOINT RightForeArm
										{
											OFFSET -34.140198 0.000000 0.000000
											CHANNELS 3 Xrotation Yrotation Zrotation
											JOINT RightHand
											{
												OFFSET -40.960209 0.000000 0.000000
												CHANNELS 3 Xrotation Yrotation Zrotation
												End Site
												{
													OFFSET 0 0 0
												}
											}
										}
									}
								}
							}
						}
					}
				}
			}
		}
	}
}
MOTION
Frames: 11
Frame Time: 0.03333333
0.334342 87.144531 0.047501 0.000000 0.000000 0.000000 11.660058 6.286013 -1.481157 -52.419957 2.140954 3.907409 71.899496 7.576527 -0.335968 -24.209491 7.042458 -6.659393 -3.131886 -0.268272 0.100194 0.000000 0.000000 0.000000 12.098065 5.218019 -1.309636 -50.065826 -11.269659 -6.506683 74.726887 -5.998438 -1.865066 -28.066591 -9.674323 5.872145 0.738644 0.467408 -0.395580 0.000000 0.000000 0.000000 11.967711 3.360260 -1.062883 9.303989 1.265835 1.853363 8.782554 1.922045 -0.467232 0.867557 -0.710042 0.367999 0.000000 0.000000 0.000000 9.042832 0.856204 0.108799 -10.247948 -1.323475 6.150022 -25.738560 1.581835 -7.149213 0.000000 0.000000 0.000000 9.143016 0.528221 -0.002487 3.358586 -24.569311 3.908112 -2.556145 0.436768 -3.289911 -62.457162 -24.841405 -65.119515 177.351517 -72.487507 175.581815 0.000000 0.000000 0.000000 8.248595 0.595449 0.227675 0.019314 12.073963 10.775323 0.684880 6.641471 0.374046 -63.367333 31.555532 50.818820 -179.014982 70.473421 178.211616 0.000000 0.000000 0.000000 
0.329831 87.137871 0.046665 0.000000 0.000000 0.000000 11.638122 6.268156 -1.470877 -52.415015 2.154591 3.917053 71.919208 7.571926 -0.332612 -24.211308 7.050545 -6.674534 -3.139373 -0.269057 0.098783 0.000000 0.000000 0.000000 12.076275 5.196839 -1.299871 -50.062193 -11.262889 -6.500880 74.731620 -5.989605 -1.871154 -28.071524 -9.674631 5.860838 0.734306 0.466687 -0.396086 0.000000 0.000000 0.000000 11.952169 3.345779 -1.057575 9.304873 1.250517 1.863771 8.801281 1.905526 -0.461228 0.864644 -0.708347 0.367441 0.000000 0.000000 0.000000 9.062622 0.837371 0.114373 -10.250254 -1.302754 6.132947 -25.754091 1.651285 -7.168159 0.000000 0.000000 0.000000 9.166214 0.511205 0.003077 3.358404 -24.578876 3.906628 -2.558085 0.453454 -3.268195 -62.477182 -24.787590 -65.138039 177.347241 -72.529847 175.593126 0.000000 0.000000 0.000000 8.272459 0.577963 0.232382 0.013529 12.118557 10.746524 0.668682 6.626679 0.365855 -63.391949 31.517324 50.800898 -179.034203 70.532112 178.238144 0.000000 0.000000 0.000000 
0.325937 87.128174 0.045536 0.000000 0.000000 0.000000 11.613801 6.255763 -1.466143 -52.413533 2.162944 3.927778 71.944759 7.567990 -0.327610 -24.214397 7.061315 -6.685040 -3.150551 -0.269442 0.095516 0.000000 0.000000 0.000000 12.053932 5.176091 -1.294334 -50.057709 -11.259622 -6.492040 74.739666 -5.982869 -1.876041 -28.078558 -9.673823 5.845957 0.732445 0.466198 -0.396248 0.000000 0.000000 0.000000 11.934531 3.328304 -1.054011 9.307511 1.239083 1.874507 8.816464 1.893284 -0.455372 0.855800 -0.699112 0.365520 0.000000 0.000000 0.000000 9.074928 0.822546 0.119735 -10.248418 -1.283605 6.118438 -25.758916 1.709523 -7.180780 0.000000 0.000000 0.000000 9.186549 0.497002 0.009155 3.357684 -24.583220 3.900479 -2.572838 0.457747 -3.255608 -62.514618 -24.727020 -65.140375 177.344550 -72.579885 175.604191 0.000000 0.000000 0.000000 8.290911 0.563611 0.237759 0.007613 12.159058 10.719595 0.657515 6.616895 0.363836 -63.442260 31.459015 50.808336 -179.035610 70.590756 178.242365 0.000000 0.000000 0.000000 
0.322371 87.115685 0.045372 0.000000 0.000000 0.000000 11.588504 6.247051 -1.462929 -52.411074 2.165772 3.932463 71.970468 7.565790 -0.321148 -24.220073 7.075456 -6.692982 -3.161748 -0.269444 0.091233 0.000000 0.000000 0.000000 12.029805 5.155776 -1.289042 -50.051657 -11.258963 -6.483951 74.753190 -5.976972 -1.880747 -28.085997 -9.671422 5.833224 0.731243 0.466114 -0.396501 0.000000 0.000000 0.000000 11.913469 3.306588 -1.047425 9.310057 1.231151 1.883316 8.826447 1.885243 -0.449919 0.843451 -0.689233 0.365198 0.000000 0.000000 0.000000 9.081850 0.813074 0.124544 -10.236812 -1.268945 6.104510 -25.759463 1.741307 -7.184797 0.000000 0.000000 0.000000 9.202299 0.487015 0.015682 3.356042 -24.578801 3.896359 -2.589203 0.444569 -3.257860 -62.555537 -24.678034 -65.118566 177.349072 -72.574489 175.616950 0.000000 0.000000 0.000000 8.302728 0.553832 0.243403 0.002100 12.188242 10.690459 0.656313 6.619500 0.373359 -63.501245 31.392608 50.850219 -179.029107 70.595770 178.235876 0.000000 0.000000 0.000000 
0.318475 87.102112 0.048191 0.000000 0.000000 0.000000 11.563667 6.239838 -1.457342 -52.402793 2.165302 3.927656 71.991007 7.565608 -0.313554 -24.227270 7.091841 -6.700952 -3.171026 -0.269400 0.088105 0.000000 0.000000 0.000000 12.004208 5.138137 -1.280824 -50.043901 -11.259408 -6.479582 74.771604 -5.970258 -1.887112 -28.093866 -9.667369 5.828039 0.729177 0.466526 -0.396969 0.000000 0.000000 0.000000 11.889461 3.283854 -1.036536 9.311233 1.225426 1.887639 8.831384 1.880930 -0.445553 0.837163 -0.678271 0.365075 0.000000 0.000000 0.000000 9.084683 0.809234 0.128821 -10.217224 -1.260987 6.090117 -25.762029 1.741994 -7.180258 0.000000 0.000000 0.000000 9.212423 0.481964 0.022340 3.354634 -24.568289 3.898991 -2.599082 0.423671 -3.269836 -62.580611 -24.652082 -65.071123 177.355793 -72.494159 175.623725 0.000000 0.000000 0.000000 8.308045 0.548621 0.248624 -0.002109 12.204910 10.659652 0.660060 6.625778 0.390249 -63.557205 31.336150 50.918951 -179.018589 70.537317 178.224948 0.000000 0.000000 0.000000 
0.314776 87.088814 0.051868 0.000000 0.000000 0.000000 11.541457 6.231211 -1.447404 -52.387438 2.163616 3.913462 72.005090 7.567463 -0.306080 -24.233270 7.108911 -6.710307 -3.175698 -0.269469 0.086715 0.000000 0.000000 0.000000 11.978749 5.123465 -1.268627 -50.033823 -11.259339 -6.479724 74.792354 -5.962916 -1.895840 -28.104031 -9.662508 5.830235 0.726768 0.467324 -0.397492 0.000000 0.000000 0.000000 11.865240 3.264762 -1.021988 9.312086 1.220802 1.887196 8.832511 1.879318 -0.442637 0.836951 -0.667482 0.362784 0.000000 0.000000 0.000000 9.086049 0.810322 0.132244 -10.194845 -1.260546 6.077897 -25.774187 1.714028 -7.171845 0.000000 0.000000 0.000000 9.217373 0.481344 0.027488 3.353475 -24.558114 3.907853 -2.594665 0.409767 -3.285345 -62.580010 -24.645296 -65.005642 177.364713 -72.365062 175.623916 0.000000 0.000000 0.000000 8.309050 0.548432 0.252598 -0.005543 12.210608 10.628492 0.677120 6.636979 0.404915 -63.605119 31.302771 50.996105 -179.010830 70.451393 178.216916 0.000000 0.000000 0.000000 
0.310672 87.077744 0.056919 0.000000 0.000000 0.000000 11.522436 6.221706 -1.433447 -52.368792 2.162821 3.893579 72.015110 7.570835 -0.299447 -24.236180 7.125022 -6.720962 -3.174589 -0.269304 0.086121 0.000000 0.000000 0.000000 11.955957 5.113995 -1.253611 -50.021987 -11.258858 -6.483590 74.814463 -5.956909 -1.905912 -28.118272 -9.658524 5.834179 0.725738 0.468345 -0.397296 0.000000 0.000000 0.000000 11.843526 3.252157 -1.006153 9.313555 1.216681 1.883071 8.830797 1.879724 -0.441209 0.845484 -0.660986 0.361548 0.000000 0.000000 0.000000 9.087307 0.814135 0.134328 -10.178263 -1.266792 6.070383 -25.797128 1.670067 -7.163883 0.000000 0.000000 0.000000 9.219308 0.483582 0.029942 3.353028 -24.551004 3.921672 -2.573907 0.408330 -3.296107 -62.566404 -24.648213 -64.939567 177.368429 -72.234680 175.614573 0.000000 0.000000 0.000000 8.308953 0.552218 0.254349 -0.008254 12.210332 10.602553 0.699070 6.644681 0.405189 -63.650656 31.303512 51.061541 -179.004327 70.391096 178.209211 0.000000 0.000000 0.000000 
0.306098 87.068703 0.059311 0.000000 0.000000 0.000000 11.506816 6.213631 -1.418333 -52.351170 2.163835 3.872983 72.022740 7.574984 -0.293287 -24.237631 7.137086 -6.730682 -3.169493 -0.268941 0.085985 0.000000 0.000000 0.000000 11.938962 5.111675 -1.238869 -50.012093 -11.256988 -6.489506 74.836771 -5.953759 -1.915743 -28.136232 -9.656788 5.835827 0.727508 0.469290 -0.396237 0.000000 0.000000 0.000000 11.826455 3.249251 -0.992764 9.318063 1.213247 1.876812 8.827752 1.881732 -0.441151 0.858709 -0.658939 0.361389 0.000000 0.000000 0.000000 9.088916 0.818739 0.135399 -10.175120 -1.277025 6.071540 -25.826685 1.625447 -7.161367 0.000000 0.000000 0.000000 9.218700 0.487164 0.029562 3.352894 -24.550661 3.932751 -2.545497 0.420518 -3.296601 -62.558953 -24.643751 -64.891435 177.361995 -72.157014 175.594191 0.000000 0.000000 0.000000 8.308754 0.557478 0.254112 -0.010068 12.208778 10.590850 0.720014 6.644275 0.392803 -63.701513 31.344705 51.102229 -178.988796 70.404402 178.190319 0.000000 0.000000 0.000000 
0.300841 87.061508 0.057194 0.000000 0.000000 0.000000 11.495277 6.209216 -1.405218 -52.340102 2.165284 3.856360 72.029686 7.577990 -0.287203 -24.238666 7.142507 -6.739454 -3.161949 -0.268060 0.085001 0.000000 0.000000 0.000000 11.929502 5.119065 -1.227510 -50.007411 -11.253301 -6.495598 74.858853 -5.953996 -1.923526 -28.155187 -9.657566 5.833785 0.732134 0.469820 -0.394428 0.000000 0.000000 0.000000 11.814961 3.255316 -0.983573 9.326515 1.210977 1.870403 8.824071 1.884170 -0.441750 0.871617 -0.661873 0.361175 0.000000 0.000000 0.000000 9.092056 0.822398 0.135054 -10.188336 -1.287953 6.081915 -25.855182 1.593206 -7.167553 0.000000 0.000000 0.000000 9.216386 0.490445 0.027135 3.351308 -24.554469 3.935202 -2.521469 0.434997 -3.290424 -62.575372 -24.620312 -64.870015 177.351545 -72.154235 175.573687 0.000000 0.000000 0.000000 8.309461 0.562163 0.252646 -0.011507 12.207089 10.599286 0.739568 6.641392 0.371464 -63.756326 31.420837 51.121261 -178.965013 70.506192 178.159993 0.000000 0.000000 0.000000 
0.294325 87.055878 0.051086 0.000000 0.000000 0.000000 11.488726 6.213685 -1.397172 -52.340228 2.165714 3.846734 72.034870 7.578372 -0.281061 -24.240032 7.138947 -6.746682 -3.153253 -0.266700 0.082755 0.000000 0.000000 0.000000 11.928151 5.137259 -1.221979 -50.010242 -11.248639 -6.500575 74.879644 -5.957132 -1.928134 -28.171115 -9.660158 5.829118 0.737925 0.469830 -0.392579 0.000000 0.000000 0.000000 11.810332 3.269712 -0.979865 9.338394 1.209932 1.865075 8.820580 1.885992 -0.442133 0.878807 -0.670012 0.364941 0.000000 0.000000 0.000000 9.095602 0.823798 0.134214 -10.217481 -1.295532 6.096951 -25.872347 1.584047 -7.182441 0.000000 0.000000 0.000000 9.214276 0.491757 0.024596 3.349436 -24.559660 3.929696 -2.510211 0.448388 -3.282621 -62.625444 -24.573899 -64.873437 177.335412 -72.229927 175.554262 0.000000 0.000000 0.000000 8.310920 0.564133 0.251363 -0.012917 12.207589 10.630164 0.743230 6.632357 0.353366 -63.809547 31.514472 51.127275 -178.929154 70.675738 178.115173 0.000000 0.000000 0.000000 
0.286257 87.050949 0.038288 0.000000 0.000000 0.000000 11.488617 6.228928 -1.395646 -52.352990 2.163178 3.844799 72.037165 7.575867 -0.276124 -24.240679 7.124952 -6.752047 -3.144568 -0.265383 0.079842 0.000000 0.000000 0.000000 11.932796 5.162051 -1.222556 -50.020440 -11.244065 -6.503978 74.896030 -5.962092 -1.928897 -28.181239 -9.663855 5.825518 0.742361 0.469350 -0.391808 0.000000 0.000000 0.000000 11.812732 3.291300 -0.981581 9.353488 1.210109 1.861468 8.818220 1.886148 -0.441657 0.875495 -0.681480 0.365601 0.000000 0.000000 0.000000 9.098475 0.823089 0.134121 -10.258815 -1.298719 6.112702 -25.871978 1.600382 -7.207594 0.000000 0.000000 0.000000 9.212782 0.490592 0.023078 3.347895 -24.565165 3.917528 -2.518671 0.456588 -3.278412 -62.692496 -24.508565 -64.886585 177.320973 -72.367097 175.542118 0.000000 0.000000 0.000000 8.312907 0.563012 0.251879 -0.015527 12.209363 10.677300 0.729110 6.623779 0.345890 -63.847399 31.600546 51.131838 -178.888829 70.868349 178.065463 0.000000 0.000000 0.000000 
